HIERARCHY
ROOT Hips
{
 OFFSET 0.000000 0.000000 0.000000
 CHANNELS 6 Xposition Yposition Zposition Yrotation Xrotation Zrotation
 JOINT Chest
 {
  OFFSET 0.000000 8.841881 -6.654894
  CHANNELS 3 Yrotation Xrotation Zrotation
  JOINT Chest2
  {
   OFFSET 0.000000 7.072353 0.028336
   CHANNELS 3 Yrotation Xrotation Zrotation
   JOINT Chest3
   {
    OFFSET 0.000000 10.125157 -0.014641
    CHANNELS 3 Yrotation Xrotation Zrotation
    JOINT Chest4
    {
     OFFSET 0.000000 10.441534 -0.016102
     CHANNELS 3 Yrotation Xrotation Zrotation
     JOINT Neck
     {
      OFFSET 0.000000 16.849355 0.013667
      CHANNELS 3 Yrotation Xrotation Zrotation
      JOINT Head
      {
       OFFSET 0.000000 10.107081 0.000000
       CHANNELS 3 Yrotation Xrotation Zrotation
       End Site
       {
        OFFSET 0.000000 15.162723 0.000000
       }
      }
     }
     JOINT RightCollar
     {
      OFFSET -2.775264 10.553866 0.006834
      CHANNELS 3 Yrotation Xrotation Zrotation
      JOINT RightShoulder
      {
       OFFSET -16.020521 0.000000 0.000000
       CHANNELS 3 Yrotation Xrotation Zrotation
       JOINT RightElbow
       {
        OFFSET -23.902096 0.000000 0.000000
        CHANNELS 3 Yrotation Xrotation Zrotation
        JOINT RightWrist
        {
         OFFSET -23.631001 0.000000 -0.000566
         CHANNELS 3 Yrotation Xrotation Zrotation
         End Site
         {
          OFFSET -18.828190 0.690323 0.103033
         }
        }
       }
      }
     }
     JOINT LeftCollar
     {
      OFFSET 2.775264 10.553866 0.006834
      CHANNELS 3 Yrotation Xrotation Zrotation
      JOINT LeftShoulder
      {
       OFFSET 16.020521 0.000000 0.000000
       CHANNELS 3 Yrotation Xrotation Zrotation
       JOINT LeftElbow
       {
        OFFSET 23.902096 0.000000 0.000000
        CHANNELS 3 Yrotation Xrotation Zrotation
        JOINT LeftWrist
        {
         OFFSET 23.631001 0.000000 -0.000566
         CHANNELS 3 Yrotation Xrotation Zrotation
         End Site
         {
          OFFSET 18.828190 0.690323 0.103033
         }
        }
       }
      }
     }
    }
   }
  }
 }
 JOINT RightHip
 {
  OFFSET -9.646452 0.046004 -0.007286
  CHANNELS 3 Yrotation Xrotation Zrotation
  JOINT RightKnee
  {
   OFFSET 0.000000 -48.923989 0.009793
   CHANNELS 3 Yrotation Xrotation Zrotation
   JOINT RightAnkle
   {
    OFFSET 0.000000 -37.831989 0.111451
    CHANNELS 3 Yrotation Xrotation Zrotation
    JOINT RightToe
    {
     OFFSET 0.000000 -8.084683 17.519885
     CHANNELS 3 Yrotation Xrotation Zrotation
     End Site
     {
      OFFSET 0.000000 -1.047441 5.170765
     }
    }
   }
  }
 }
 JOINT LeftHip
 {
  OFFSET 9.646452 0.044016 -0.006971
  CHANNELS 3 Yrotation Xrotation Zrotation
  JOINT LeftKnee
  {
   OFFSET 0.000000 -48.923989 0.009793
   CHANNELS 3 Yrotation Xrotation Zrotation
   JOINT LeftAnkle
   {
    OFFSET 0.000000 -37.831989 0.111451
    CHANNELS 3 Yrotation Xrotation Zrotation
    JOINT LeftToe
    {
     OFFSET 0.000000 -8.084683 17.519885
     CHANNELS 3 Yrotation Xrotation Zrotation
     End Site
     {
      OFFSET 0.000000 -1.047441 5.170765
     }
    }
   }
  }
 }
}
MOTION
Frames: 8
Frame Time: 0.004167
31.407292 90.365188 129.052027 17.471104 16.971456 1.384479 -7.416442 0.764364 -0.337304 -3.524027 -13.148714 -0.039853 -2.407007 -0.190621 -0.561321 -0.715066 9.447275 -0.160575 2.993654 4.263894 0.245808 5.592881 7.904234 0.636423 -6.771889 -1.776651 6.227939 -29.946482 5.355792 48.917834 12.182431 -11.914623 4.289193 4.794089 1.900942 -2.659742 -3.009859 -3.836463 -5.487042 2.918832 -19.921838 -64.681943 -63.577201 -4.761921 -9.056006 -10.803018 11.185421 1.322310 -9.900472 -54.815674 5.952933 -5.019308 13.221318 0.107744 -6.520726 -13.049966 9.750761 -0.000000 0.000000 0.000000 8.563319 14.531765 7.439520 -2.475884 37.818241 0.301560 -0.530415 32.544628 -6.442271 -0.000000 0.000000 -0.000000
31.673391 90.135229 130.192636 17.538634 16.621809 1.675898 -7.536290 0.670176 -0.471438 -3.567885 -13.191085 -0.105051 -2.437033 -0.220133 -0.613881 -0.726289 9.439097 -0.175901 3.025163 4.450444 0.259638 5.654823 8.249730 0.672165 -6.970225 -1.723559 6.073531 -30.327233 5.619943 48.422454 11.716050 -12.056952 4.090643 4.612010 1.796033 -2.799173 -2.965415 -3.704259 -5.497726 3.073550 -20.113265 -64.609636 -63.751964 -4.579257 -8.875576 -10.837755 11.154536 1.283809 -10.349854 -54.468567 6.374729 -4.108714 12.536411 0.127335 -6.441502 -12.995539 10.021739 -0.000000 0.000000 -0.000000 8.172055 14.770249 7.434069 -2.575862 39.647354 0.079875 0.060657 32.187004 -6.282150 0.000000 -0.000000 0.000000
31.939965 89.888862 131.333985 17.609371 16.268294 1.975406 -7.654152 0.573239 -0.613240 -3.610055 -13.234562 -0.174143 -2.465921 -0.250381 -0.668923 -0.737316 9.430722 -0.191951 3.054676 4.640390 0.274969 5.713386 8.601447 0.710945 -7.166637 -1.679898 5.906716 -30.685884 5.894497 47.927652 11.246261 -12.187246 3.899377 4.400546 1.693018 -2.911062 -2.913133 -3.568347 -5.513427 3.240683 -20.304833 -64.544705 -63.917334 -4.345035 -8.720128 -10.864139 11.119110 1.229476 -10.797477 -54.115425 6.778986 -3.124588 11.937533 0.141362 -6.377454 -12.957146 10.262178 0.000000 -0.000000 0.000000 7.790094 15.013265 7.431346 -2.607037 41.469424 -0.131268 0.611710 31.785155 -6.173931 -0.000000 -0.000000 0.000000
32.206128 89.627038 132.475344 17.682363 15.907985 2.279333 -7.768937 0.476735 -0.761222 -3.650166 -13.277651 -0.246361 -2.493424 -0.280323 -0.725840 -0.748045 9.422445 -0.208545 3.081888 4.832735 0.291117 5.767953 8.957566 0.751428 -7.357023 -1.644271 5.730935 -31.027348 6.171870 47.435285 10.777714 -12.314014 3.714969 4.171444 1.592789 -2.999630 -2.855300 -3.429686 -5.532749 3.419393 -20.492545 -64.483834 -64.073114 -4.075391 -8.585269 -10.887182 11.081706 1.165942 -11.229433 -53.759443 7.155636 -2.110552 11.431384 0.144997 -6.305181 -12.903210 10.458944 0.000000 0.000000 -0.000000 7.429187 15.254105 7.438942 -2.576007 43.294788 -0.322543 1.132871 31.322699 -6.086406 0.000000 0.000000 0.000000
32.470999 89.350711 133.615984 17.756672 15.537972 2.584016 -7.879621 0.383879 -0.913903 -3.687874 -13.318849 -0.320933 -2.519312 -0.308910 -0.784030 -0.758378 9.414563 -0.225505 3.106503 5.026478 0.307404 5.817913 9.316262 0.792281 -7.537361 -1.615178 5.549694 -31.356432 6.444468 46.947407 10.315002 -12.445823 3.537236 3.936651 1.495831 -3.068983 -2.794215 -3.289239 -5.554333 3.608790 -20.672391 -64.423686 -64.219048 -3.786334 -8.466143 -10.911811 11.044972 1.099864 -11.632332 -53.403902 7.495258 -1.110042 11.024279 0.134563 -6.201578 -12.801556 10.599971 -0.000000 -0.000000 0.000000 7.101201 15.486251 7.464739 -2.488605 45.133633 -0.483850 1.635119 30.782756 -5.989181 0.000000 0.000000 -0.000000
32.733693 89.060834 134.755176 17.831380 15.155366 2.885803 -7.985248 0.297910 -1.069806 -3.722864 -13.356641 -0.397084 -2.543376 -0.335083 -0.842888 -0.768222 9.407374 -0.242650 3.128236 5.220617 0.323152 5.862663 9.675708 0.832164 -7.703713 -1.591022 5.366565 -31.677841 6.704685 46.466243 9.862658 -12.591290 3.366216 3.708269 1.402216 -3.123124 -2.732183 -3.147975 -5.576864 3.807926 -20.840362 -64.360896 -64.354760 -3.493747 -8.357462 -10.942857 11.011627 1.037938 -11.993243 -53.052127 7.789035 -0.166416 10.722112 0.107198 -6.044032 -12.619479 10.674227 -0.000000 0.000000 0.000000 6.818099 15.703339 7.516891 -2.349602 46.995929 -0.603949 2.129921 30.147824 -5.853064 0.000000 0.000000 0.000000
32.993327 88.758360 135.892189 17.905589 14.757292 3.181052 -8.084928 0.222095 -1.227451 -3.754848 -13.389502 -0.474032 -2.565427 -0.357779 -0.901811 -0.777491 9.401178 -0.259799 3.146810 5.414146 0.337690 5.901605 10.034073 0.869739 -7.852228 -1.570111 5.185180 -31.996190 6.944907 45.994160 9.425161 -12.759079 3.202131 3.498531 1.311615 -3.165940 -2.671519 -3.006868 -5.599072 4.015802 -20.992450 -64.292065 -64.479697 -3.213382 -8.253549 -10.985055 10.984437 0.986901 -12.299632 -52.707436 8.028699 0.676941 10.530326 0.060470 -5.810681 -12.323822 10.671643 -0.000000 0.000000 -0.000000 6.591900 15.899096 7.603801 -2.162299 48.891347 -0.669986 2.628794 29.399599 -5.650528 -0.000000 -0.000000 0.000000
33.249017 88.444242 137.026294 17.978428 14.340897 3.466133 -8.177836 0.159721 -1.385357 -3.783568 -13.415900 -0.550987 -2.585294 -0.375928 -0.960196 -0.786101 9.396279 -0.276774 3.161956 5.606055 0.350349 5.934143 10.389525 0.903666 -7.979148 -1.550672 5.009228 -32.316001 7.157507 45.533651 9.006941 -12.957889 3.045348 3.319776 1.223322 -3.201168 -2.614544 -2.866897 -5.619735 4.231373 -21.124652 -64.213766 -64.593103 -2.960874 -8.148398 -11.043053 10.966200 0.953523 -12.539275 -52.373080 8.206466 1.376531 10.453871 -0.008081 -5.480699 -11.881078 10.582972 -0.000000 0.000000 -0.000000 6.434612 16.067264 7.734076 -1.927965 50.829157 -0.666883 3.142786 28.518756 -5.356222 0.000000 0.000000 -0.000000
